<?xml version="1.0" ?><svg id="Слой_1" style="enable-background:new 0 0 100 100;" version="1.1" viewBox="0 0 100 100" xml:space="preserve" xmlns="http://www.w3.org/2000/svg" xmlns:xlink="http://www.w3.org/1999/xlink"><path d="M89.29,76.853c-1.22,4.58-3.85,8.53-7.6,11.42c-3.83,2.93-8.47,4.57-13.44,4.71c-4.35,0.14-8.15-0.82-12.51-2.29  c-2.6-0.88-11.95-4.46-23.14-13.52c-3.19-2.58-5.71-4.62-8.63-8.05c-4.02-4.72-10.75-12.63-9.2-21c1.02-5.48,4.7-8.57,5.43-9.13  c1.28-1,3.26-2.32,5.63-2.42c2.43-0.1,4.46,1,5.44,1.66c0.23,0.15,0.54,0.09,0.7-0.14c0.15-0.23,0.09-0.54-0.14-0.69  c-0.93-0.63-2.72-1.62-4.95-1.81c0.51-1.54,1.71-3.68,4.5-4.35c3.39-0.81,6.52,0.84,9.69,2.75c4.77,2.87,9.79,8.28,14.52,15.65  c0.95,1.48,1.92,3.36,3.04,5.53c1.27,2.48,2.71,5.28,4.49,8.19c3.48,5.68,8.14,9.77,12.47,10.96c0.76,0.2,1.45,0.28,2.05,0.28  c1.61,0,2.57-0.55,2.59-0.57c0.3-0.13,1.18-0.41,1.73-0.15c0.25,0.12,0.55,0.02,0.67-0.23s0.01-0.55-0.24-0.67  c-0.19-0.09-0.38-0.14-0.57-0.17c0.18-0.59,0.41-1.11,0.65-1.66c0.88-2.05,1.79-4.18,0.69-9.5c-0.06-0.28-0.16-0.77-0.15-0.98  c0.55-0.05,2.33,1.1,3.29,2.06C89.85,66.253,90.85,71.013,89.29,76.853z"/><path d="M28.33,31.673c-1.15,0.94-2.01,2.28-2.48,3.9h-0.06c-2.66,0.11-4.81,1.55-6.2,2.62c-0.45,0.35-1.94,1.59-3.33,3.68  c-0.59-3.02,0.7-6.8,0.71-6.84c0.06-0.17,0.02-0.36-0.09-0.5c-7.36-8.42-8.91-17.13-4.16-23.31c2.76-3.43,6.16-4.19,8.52-4.22  c3.1-0.06,5.82,1.15,6.77,2.26c1.73,2.42,0.93,5.09,0.3,6.46c-1,2.2-2.55,3.49-3.06,3.54c-0.37,0.02-0.99-0.41-1.6-0.84  c-1.46-1.02-3.68-2.57-6.07-0.38c-0.76,0.7-1.17,1.62-1.21,2.73c-0.11,3.07,2.67,7.15,5.31,9.94c0.12,0.13,0.29,0.18,0.45,0.15  C22.17,30.863,25.63,30.273,28.33,31.673z"/></svg>